<svg width="35" height="44" viewBox="0 0 35 44" fill="none" xmlns="http://www.w3.org/2000/svg">
<path d="M4.375 44C3.17187 44 2.14229 43.5695 1.28625 42.7086C0.430208 41.8477 0.00145833 40.8115 0 39.6V4.4C0 3.19 0.42875 2.15453 1.28625 1.2936C2.14375 0.432667 3.17333 0.00146667 4.375 0H30.625C31.8281 0 32.8584 0.4312 33.7159 1.2936C34.5734 2.156 35.0015 3.19147 35 4.4V39.6C35 40.81 34.572 41.8462 33.7159 42.7086C32.8599 43.571 31.8296 44.0015 30.625 44H4.375ZM15.3125 19.8L20.7812 16.5L26.25 19.8V4.4H15.3125V19.8Z" fill="#ADA296"/>
</svg>
