<svg width="35" height="44" viewBox="0 0 35 44" fill="none" xmlns="http://www.w3.org/2000/svg">
<path fill-rule="evenodd" clip-rule="evenodd" d="M11.6667 9.84545C11.6667 4.80058 11.6667 2.27704 13.0414 0.897568L13.0434 0.899768C14.4181 -0.479706 16.52 -0.0660836 20.7239 0.763361L25.2506 1.65881C29.9056 2.57626 32.235 3.03608 33.6194 4.96779C35 6.90169 35 9.69584 35 15.2841V28.7137C35 34.3042 35 37.0983 33.6175 39.0322C32.235 40.9639 29.9075 41.4237 25.2525 42.3434L20.722 43.2366C16.5181 44.0661 14.4161 44.4797 13.0414 43.1002C11.6667 41.7208 11.6667 39.1972 11.6667 34.1523V9.84545ZM18.9584 19.6954C18.9584 18.7427 18.305 17.9705 17.5 17.9705C16.695 17.9705 16.0417 18.7427 16.0417 19.6954V24.3024C16.0417 25.2551 16.695 26.0273 17.5 26.0273C18.305 26.0273 18.9584 25.2551 18.9584 24.3024V19.6954ZM1.42333 7.10857C2.75333 5.60368 4.83972 5.50468 8.84138 5.49808C8.74999 6.86875 8.74999 8.45284 8.74999 10.1689V33.829C8.74999 35.5429 8.74999 37.127 8.84138 38.4999C4.83972 38.4932 2.75333 38.392 1.42333 36.8894C0 35.2767 0 32.6849 0 27.4993V16.4987C0 11.3108 0 8.71905 1.42333 7.10857Z" fill="#ADA296"/>
</svg>
